PathFileType	4	(X/Y/Z)	/Users/itak/Documents/Research/Walk-IL/dataset/trc/00501_00183.trc
DataRate	CameraRate	NumFrames	NumMarkers	Units	OrigDataRate	OrigDataStartFrame	OrigNumFrames
100.000000	100.000000	4	53	mm	100.000000	521	695
Frame#	Time	RPSI			LPSI			L3			STRN			T10			C7			CLAV			RBAK			LBAK			LSHO			LUPA			LAEL			LAOL			LWTS			LWPS			LFRA			LIFD			LHPS			LHTS			RSHO			RUPA			RAEL			RAOL			RWTS			RWPS			RFRA			RIFD			RHTS			RHPS			RBHD			LFHD			RFHD			LBHD			LHIP			RHIP			RASI			LASI			LKNE			LTHI			LANK			LTIP			LTOE			LMT1			LMT5			LHEE			RKNE			RTHI			RANK			RTIP			RTOE			RMT1			RMT5			RHEE			
		X1	Y1	Z1	X2	Y2	Z2	X3	Y3	Z3	X4	Y4	Z4	X5	Y5	Z5	X6	Y6	Z6	X7	Y7	Z7	X8	Y8	Z8	X9	Y9	Z9	X10	Y10	Z10	X11	Y11	Z11	X12	Y12	Z12	X13	Y13	Z13	X14	Y14	Z14	X15	Y15	Z15	X16	Y16	Z16	X17	Y17	Z17	X18	Y18	Z18	X19	Y19	Z19	X20	Y20	Z20	X21	Y21	Z21	X22	Y22	Z22	X23	Y23	Z23	X24	Y24	Z24	X25	Y25	Z25	X26	Y26	Z26	X27	Y27	Z27	X28	Y28	Z28	X29	Y29	Z29	X30	Y30	Z30	X31	Y31	Z31	X32	Y32	Z32	X33	Y33	Z33	X34	Y34	Z34	X35	Y35	Z35	X36	Y36	Z36	X37	Y37	Z37	X38	Y38	Z38	X39	Y39	Z39	X40	Y40	Z40	X41	Y41	Z41	X42	Y42	Z42	X43	Y43	Z43	X44	Y44	Z44	X45	Y45	Z45	X46	Y46	Z46	X47	Y47	Z47	X48	Y48	Z48	X49	Y49	Z49	X50	Y50	Z50	X51	Y51	Z51	X52	Y52	Z52	X53	Y53	Z53	

522	5.21	369.8085021972656	960.1641235351562	240.6083831787109	438.9120483398438	958.3414916992188	137.0267028808594	399.1419372558594	1028.773803710938	188.5480804443359	586.455810546875	1193.411865234375	292.3359680175781	379.5590515136719	1131.852661132812	188.2165374755859	412.0399780273438	1362.494506835938	210.5240173339844	552.7562866210938	1287.72900390625	276.2225646972656	333.4514465332031	1239.339477539062	267.1706237792969	428.6748352050781	1309.754760742188	120.3799743652344	546.1124877929688	1356.87109375	97.00251770019531	567.8755493164062	1232.993774414062	35.26614379882812	597.0139770507812	1023.931762695312	14.43349456787109	501.5837707519531	1011.644470214844	37.26793670654297	661.3158569335938	838.9105224609375	92.89679718017578	617.787353515625	801.0504760742188	18.34176445007324	615.4844970703125	941.9525146484375	21.60597229003906	665.8181762695312	682.0513305664062	104.4323043823242	638.4639282226562	748.024169921875	35.54861068725586	682.5845947265625	761.8333740234375	81.81732940673828	398.9701843261719	1355.969360351562	368.5079650878906	360.7762451171875	1288.826538085938	413.9253845214844	347.6838989257812	1022.143737792969	459.3487854003906	316.7082824707031	1005.667175292969	402.7656860351562	453.7940063476562	819.7156372070312	473.8274536132812	365.5093994140625	798.5452270507812	485.9480590820312	349.1686706542969	967.8212890625	468.1618347167969	454.6997680664062	660.3842163085938	476.3418273925781	457.8126525878906	726.5586547851562	502.2716369628906	385.9206237792969	724.3912353515625	497.0155944824219	413.668212890625	1519.824096679688	301.1893005371094	594.4524536132812	1577.20703125	237.4454803466797	531.6821899414062	1573.482421875	348.1321411132812	480.8844299316406	1521.865844726562	154.6338806152344	605.0386352539062	889.4710693359375	91.62183380126953	384.1643981933594	859.193603515625	401.9072570800781	506.2726440429688	902.9745483398438	405.9408874511719	635.4917602539062	923.5874633789062	201.8551635742188	659.0216674804688	475.993896484375	190.1299133300781	654.1800537109375	629.7178955078125	149.5683746337891	616.1800537109375	44.46510696411133	173.9490051269531	659.5087280273438	320.686767578125	184.2476654052734	757.8639526367188	36.07962417602539	323.8509826660156	675.004150390625	39.21921157836914	314.7850036621094	713.7947998046875	40.08635330200195	219.9236602783203	546.0350952148438	42.0105094909668	208.3672943115234	386.0895385742188	475.5527648925781	374.1571655273438	403.3884887695312	728.8169555664062	413.5502014160156	122.3942642211914	148.4747467041016	240.9495697021484	332.5876770019531	346.2462158203125	341.1970825195312	273.6767578125	32.74500274658203	263.2259826660156	246.26953125	67.91326904296875	207.0970764160156	188.3251647949219	66.54869079589844	285.9590148925781	105.6055450439453	179.4821929931641	180.7786712646484	
523	5.22	374.9936218261719	960.5437622070312	240.6416473388672	444.267822265625	958.6906127929688	137.1852416992188	404.5335388183594	1029.228637695312	188.6884765625	591.6240844726562	1193.798828125	292.8252868652344	385.1025390625	1132.336547851562	188.4141693115234	417.2838134765625	1362.956176757812	210.9427490234375	557.9193115234375	1288.1298828125	276.7862854003906	338.7010192871094	1239.689697265625	267.36376953125	434.0694580078125	1310.305541992188	120.7519073486328	551.5454711914062	1357.458374023438	97.63146209716797	573.6015014648438	1233.6513671875	35.91206359863281	603.1370849609375	1024.634155273438	15.09004688262939	507.6263732910156	1012.201293945312	37.50667572021484	667.5923461914062	839.8997192382812	93.82252502441406	624.4265747070312	801.8169555664062	19.1469841003418	621.7655029296875	942.7706909179688	22.34227561950684	672.369873046875	683.0635986328125	105.5954437255859	645.154296875	748.8771362304688	36.53318023681641	689.06298828125	762.8536987304688	82.95869445800781	403.9925231933594	1356.269287109375	368.9055480957031	365.723876953125	1289.06103515625	414.1879272460938	352.6740112304688	1022.392150878906	459.5669860839844	322.0034790039062	1005.795227050781	402.8929443359375	459.679443359375	820.59130859375	474.939453125	371.34033203125	798.8921508789062	486.4789733886719	354.3280334472656	968.0615234375	468.4322814941406	461.5901794433594	661.3182983398438	477.5706787109375	464.0231323242188	727.525634765625	503.5634155273438	392.1888732910156	724.8475341796875	497.7906188964844	418.196533203125	1519.988403320312	301.5467224121094	598.8865966796875	1578.083374023438	238.3142395019531	535.81640625	1574.140258789062	348.7940979003906	485.8025207519531	1522.240478515625	155.1461639404297	610.5133666992188	889.6355590820312	92.09217834472656	389.2042541503906	859.7923583984375	402.2465515136719	511.2694702148438	903.6117553710938	406.1543579101562	640.7291870117188	923.8417358398438	202.2188873291016	662.0208129882812	475.6233215332031	190.7304992675781	658.2677612304688	629.51806640625	150.2611541748047	616.3161010742188	44.47281646728516	173.9594116210938	661.6093139648438	320.3014221191406	184.8367919921875	758.222412109375	35.4673957824707	323.96875	675.1416625976562	39.046630859375	314.8908081054688	714.024169921875	39.80706024169922	220.0933227539062	546.13623046875	42.08298873901367	208.4571838378906	394.5005798339844	475.6244812011719	377.9876403808594	409.1691284179688	729.4150390625	414.5153503417969	126.9037551879883	153.3539428710938	244.1187133789062	340.1970520019531	347.4950866699219	345.2240905761719	275.1524047851562	31.89814186096191	264.2796325683594	248.7472381591797	69.94033813476562	208.9979095458984	190.6289825439453	68.87033081054688	287.617431640625	110.8453369140625	185.5487060546875	184.3490753173828	
524	5.23	379.9652099609375	960.89990234375	240.6613616943359	449.4341125488281	958.9934692382812	137.3379974365234	409.7790832519531	1029.6728515625	188.8155059814453	596.6781616210938	1194.139892578125	293.3382263183594	390.5532836914062	1132.818603515625	188.584716796875	422.4519653320312	1363.398193359375	211.3587036132812	562.9885864257812	1288.4951171875	277.3687744140625	343.8494262695312	1240.042358398438	267.5227661132812	439.4059143066406	1310.8359375	121.1148910522461	556.9275512695312	1358.0078125	98.29848480224609	579.2725219726562	1234.273071289062	36.57168197631836	609.189453125	1025.298706054688	15.77284336090088	513.5992431640625	1012.734008789062	37.70425415039062	673.7649536132812	840.8544311523438	94.78598785400391	631.0335693359375	802.5894165039062	19.92938804626465	627.9814453125	943.5662231445312	23.09451675415039	678.8387451171875	684.0357666015625	106.701057434082	651.8203125	749.7296142578125	37.47800827026367	695.4658203125	763.8592529296875	84.10120391845703	408.925537109375	1356.557861328125	369.288330078125	370.5534362792969	1289.288330078125	414.4338073730469	357.5624389648438	1022.63818359375	459.8014221191406	327.1767883300781	1005.897033691406	403.0675048828125	465.4375610351562	821.4263916015625	476.0215759277344	377.069580078125	799.232666015625	487.032958984375	359.4110717773438	968.2930297851562	468.7237548828125	468.3166198730469	662.2251586914062	478.7830505371094	470.102783203125	728.4581298828125	504.835205078125	398.3403015136719	725.2919311523438	498.5560913085938	422.6618041992188	1520.117065429688	301.9224243164062	603.2628784179688	1578.911987304688	239.2275085449219	539.8965454101562	1574.741943359375	349.4872131347656	490.6581420898438	1522.591918945312	155.6887512207031	615.7192993164062	889.7117919921875	92.52339172363281	394.0570983886719	860.416015625	402.6022644042969	516.0839233398438	904.2470092773438	406.3565063476562	645.7962646484375	924.0452270507812	202.5694732666016	664.9462280273438	475.2481384277344	191.3398895263672	662.2457885742188	629.291259765625	150.9499053955078	616.4153442382812	44.47721481323242	173.9889221191406	663.605712890625	319.9189758300781	185.3869781494141	758.539306640625	34.93201065063477	324.0668640136719	675.2780151367188	38.91423797607422	314.9826354980469	714.2158813476562	39.5283317565918	220.2269592285156	546.2255249023438	42.15371704101562	208.5434722900391	403.0045166015625	475.7143859863281	381.8532409667969	414.8573608398438	730.0105590820312	415.5269775390625	131.7013092041016	158.2661590576172	247.3731994628906	347.96142578125	348.7326049804688	349.2852172851562	276.8845520019531	31.07076644897461	265.6346740722656	251.5829467773438	72.0228271484375	211.19921875	193.1944580078125	71.45965576171875	289.4843444824219	116.379264831543	191.4683380126953	187.914794921875	
525	5.24	384.71337890625	961.2152099609375	240.6783447265625	454.4066467285156	959.2507934570312	137.4930114746094	414.8633422851562	1030.114624023438	188.9295501708984	601.6144409179688	1194.434936523438	293.8727722167969	395.9029541015625	1133.297973632812	188.7294921875	427.5462951660156	1363.823120117188	211.7736053466797	567.964111328125	1288.824462890625	277.969482421875	348.8895568847656	1240.400756835938	267.6513366699219	444.6846313476562	1311.349731445312	121.4715118408203	562.2606811523438	1358.523071289062	99.00485992431641	584.887451171875	1234.85986328125	37.24533843994141	615.1602172851562	1025.927001953125	16.47449684143066	519.4968872070312	1013.245361328125	37.86602401733398	679.8330078125	841.7772216796875	95.77462768554688	637.595947265625	803.3704833984375	20.68919563293457	634.1171875	944.338623046875	23.85656356811523	685.2308959960938	684.9674072265625	107.7426681518555	658.4506225585938	750.5791015625	38.38097763061523	701.7909545898438	764.8505859375	85.22871398925781	413.7688293457031	1356.836791992188	369.6564636230469	375.2713623046875	1289.51123046875	414.6668090820312	362.3624267578125	1022.882690429688	460.0564270019531	332.2369995117188	1005.981323242188	403.28515625	471.0634155273438	822.21630859375	477.0596618652344	382.6860046386719	799.5699462890625	487.6121520996094	364.41650390625	968.5183715820312	469.03759765625	474.8439331054688	663.0918579101562	479.9691162109375	476.0349731445312	729.3442993164062	506.067626953125	404.3602294921875	725.7296752929688	499.3076171875	427.0583801269531	1520.21044921875	302.3141479492188	607.5844116210938	1579.705444335938	240.1821746826172	543.9177856445312	1575.294189453125	350.2118225097656	495.4551086425781	1522.922973632812	156.260498046875	620.62548828125	889.6992797851562	92.89607238769531	398.7299499511719	861.0570678710938	402.9715576171875	520.7215576171875	904.8803100585938	406.5523071289062	650.6939086914062	924.2064208984375	202.9060668945312	667.7905883789062	474.8710327148438	191.9454650878906	666.101806640625	629.038330078125	151.6249084472656	616.4725952148438	44.47714233398438	174.0528259277344	665.4885864257812	319.538818359375	185.8897552490234	758.8130493164062	34.47122192382812	324.1531066894531	675.4124145507812	38.81173324584961	315.0623779296875	714.370361328125	39.2574348449707	220.3292999267578	546.3068237304688	42.22296142578125	208.6264801025391	411.5671081542969	475.8496398925781	385.7250671386719	420.4662780761719	730.6052856445312	416.5965881347656	136.800048828125	163.1351318359375	250.6749877929688	355.8425598144531	349.9599914550781	353.3567504882812	278.9714660644531	30.37743949890137	267.4322509765625	254.8588409423828	74.12372589111328	213.7782135009766	196.0923461914062	74.32679748535156	291.6393432617188	122.2046966552734	197.1217498779297	191.4134368896484	
